:SAMPLES-PER-SECOND 30
:FULLY-SPECIFIED
:DEGREES
265
root  59.8297 27.6172 1.22639 2.38493 -1.61458 -1.6218
RightUpLeg  -72.6977 -8.57218 2.78562
RightLeg  74.2269 -1.97746 -9.10677
RightFoot  -8.75329 -0.0352058 -1.05789
RightToes  0.000482159 0.542163 -0.142577
Spine  65.3013 -2.48847 7.22929
Spine1  -12.2819 0.405502 1.21837
HEad  -45.0911 -2.05159 3.42643
LeftShoulder1  9.77122 -18.1602 -38.8833
LeftArm  -21.6021 3.67062 -23.3952
LeftForeArm  54.0737 -69.8638 -24.6949
LeftHand  -0.25398 0.0180481 5.50724
RightShoulder  5.37123 11.4392 29.9748
RightArm  -25.685 1.99536 32.4934
RightForeArm  14.1717 67.931 28.0512
RightHand  -3.05733 7.65271 -27.1332
LeftUpLeg  -73.7657 8.9274 -2.69906
LeftLeg  71.4953 2.19895 8.29008
LeftFoot  -4.78501 -0.0424942 1.24399
LeftToes  1.06245e-005 4.65855e-005 -8.18503e-006
266
root  59.818 28.364 1.83254 4.76083 -1.69775 -1.26724
RightUpLeg  -72.4134 -7.83996 2.31658
RightLeg  72.3258 -2.47488 -9.69414
RightFoot  -8.89686 -0.0294665 -1.43638
RightToes  0.000482159 0.542163 -0.142577
Spine  64.9283 -2.38229 7.30556
Spine1  -12.5145 0.631 0.725066
HEad  -45.8168 -2.99423 3.82769
LeftShoulder1  9.68598 -18.3077 -38.2142
LeftArm  -22.652 3.0228 -24.5211
LeftForeArm  61.1529 -73.0228 -29.8975
LeftHand  -0.25398 0.0180481 5.50724
RightShoulder  5.26114 11.377 29.3747
RightArm  -26.145 4.34964 32.4611
RightForeArm  17.6872 69.8572 31.2496
RightHand  -3.14923 7.77966 -27.6571
LeftUpLeg  -73.3445 8.36411 -2.86447
LeftLeg  69.7126 2.63346 8.73804
LeftFoot  -5.89319 -0.00458314 0.833174
LeftToes  1.06245e-005 4.65855e-005 -8.18503e-006
267
root  59.8322 29.209 2.39847 6.33842 -1.79452 -0.937658
RightUpLeg  -70.9887 -7.23336 1.73621
RightLeg  69.8355 -3.03457 -9.97174
RightFoot  -8.76535 -0.0144498 -1.99329
RightToes  0.000482159 0.542163 -0.142577
Spine  64.7013 -2.35812 7.38878
Spine1  -12.6874 0.771897 0.399856
HEad  -46.2493 -3.85196 4.25446
LeftShoulder1  9.61043 -18.3481 -37.8022
LeftArm  -22.8255 1.963 -25.6648
LeftForeArm  65.2527 -73.7994 -31.1691
LeftHand  -0.25398 0.0180481 5.50724
RightShoulder  5.17286 11.3738 28.7759
RightArm  -25.7126 6.80441 32.3177
RightForeArm  20.5651 71.0165 33.4559
RightHand  -2.9944 7.18978 -27.5241
LeftUpLeg  -71.7615 7.85136 -2.83809
LeftLeg  67.3604 3.17702 9.10487
LeftFoot  -6.66933 0.03744 0.0716795
LeftToes  1.06245e-005 4.65855e-005 -8.18503e-006
268
root  59.8684 30.079 2.98354 7.4532 -1.89396 -0.448084
RightUpLeg  -68.9894 -6.87225 0.893827
RightLeg  67.1909 -3.50585 -9.83385
RightFoot  -8.62245 -0.00631818 -2.19538
RightToes  0.000482159 0.542163 -0.142577
Spine  64.1498 -2.38824 7.29951
Spine1  -12.7356 0.694678 0.213359
HEad  -46.7146 -4.54226 4.67006
LeftShoulder1  9.56102 -18.3305 -37.6187
LeftArm  -22.1441 1.17727 -26.6217
LeftForeArm  65.3899 -72.8024 -28.6702
LeftHand  -0.25398 0.0180481 5.50724
RightShoulder  5.09763 11.4161 28.1565
RightArm  -24.4779 8.99467 32.4371
RightForeArm  24.0847 71.8806 35.0637
RightHand  -2.66936 6.19314 -26.6735
LeftUpLeg  -69.5779 7.44952 -3.06737
LeftLeg  64.6726 3.71625 9.20362
LeftFoot  -6.89269 0.0556989 -0.363821
LeftToes  1.06245e-005 4.65855e-005 -8.18503e-006
269
root  59.9179 30.9347 3.61607 8.60165 -1.99076 0.13622
RightUpLeg  -67.0025 -6.69492 -0.081539
RightLeg  64.5452 -3.89783 -9.50829
RightFoot  -8.62807 -0.0183634 -1.6865
RightToes  0.000482159 0.542163 -0.142577
Spine  62.7963 -2.42564 7.12191
Spine1  -12.6862 0.441838 0.111621
HEad  -47.1232 -4.96232 5.09555
LeftShoulder1  9.59963 -18.3676 -37.7166
LeftArm  -20.8674 1.10184 -27.21
LeftForeArm  62.9327 -70.3201 -24.2358
LeftHand  -0.25398 0.0180481 5.50724
RightShoulder  4.99577 11.4066 27.4749
RightArm  -22.7119 10.6746 33.0706
RightForeArm  29.2618 72.5909 36.0242
RightHand  -2.29475 5.20294 -25.1201
LeftUpLeg  -67.4071 7.17509 -3.60961
LeftLeg  61.7985 4.20061 9.05711
LeftFoot  -6.77369 0.0515129 -0.269815
LeftToes  1.06245e-005 4.65855e-005 -8.18503e-006
270
root  59.9775 31.8122 4.26732 9.3958 -2.20674 0.390592
RightUpLeg  -64.4383 -6.41915 -0.746414
RightLeg  61.5964 -4.33038 -9.17768
RightFoot  -8.84477 -0.0400607 -0.907116
RightToes  0.000482159 0.542163 -0.142577
Spine  61.3828 -2.50735 7.0885
Spine1  -12.6934 0.296851 -0.0534037
HEad  -47.3071 -5.17941 5.64162
LeftShoulder1  9.74211 -18.4468 -38.1879
LeftArm  -19.2164 1.71176 -27.3832
LeftForeArm  59.5688 -66.4926 -19.5061
LeftHand  -0.25398 0.0180481 5.50724
RightShoulder  4.89509 11.3488 26.9093
RightArm  -20.7577 11.6715 33.9345
RightForeArm  36.2872 73.246 36.4317
RightHand  -1.89783 4.22931 -22.9439
LeftUpLeg  -64.7833 7.25397 -3.87665
LeftLeg  58.772 4.63841 8.7595
LeftFoot  -6.81865 0.0516915 -0.27249
LeftToes  1.06245e-005 4.65855e-005 -8.18503e-006
271
root  60.0673 32.7027 4.92328 9.73605 -2.52839 0.587436
RightUpLeg  -61.2985 -6.2229 -1.34275
RightLeg  58.3629 -4.69795 -8.66062
RightFoot  -9.16906 -0.0570688 -0.266594
RightToes  0.000482159 0.542163 -0.142577
Spine  59.9592 -2.59812 7.00154
Spine1  -12.5939 0.170119 -0.197409
HEad  -47.4083 -5.53218 6.34034
LeftShoulder1  9.91482 -18.4533 -38.9294
LeftArm  -17.301 2.67429 -27.3887
LeftForeArm  55.9408 -61.3941 -15.2768
LeftHand  -0.25398 0.0180481 5.50724
RightShoulder  4.8463 11.3043 26.6706
RightArm  -18.6826 11.9697 34.673
RightForeArm  43.1082 73.801 36.5552
RightHand  -1.5928 3.4712 -20.9771
LeftUpLeg  -61.569 7.53571 -4.07938
LeftLeg  55.539 5.08043 8.41705
LeftFoot  -7.0661 0.0712808 -0.773983
LeftToes  1.06245e-005 4.65855e-005 -8.18503e-006
272
root  60.1787 33.574 5.58841 9.52002 -2.94207 0.773428
RightUpLeg  -57.5772 -6.16476 -1.93774
RightLeg  54.9731 -4.8866 -7.88171
RightFoot  -9.39164 -0.0711534 0.435465
RightToes  0.000482159 0.542163 -0.142577
Spine  58.5481 -2.6785 6.79876
Spine1  -12.295 0.0287263 -0.256805
HEad  -47.473 -6.13978 7.15804
LeftShoulder1  10.0577 -18.3451 -39.767
LeftArm  -15.2388 3.79479 -27.4378
LeftForeArm  52.0847 -55.2547 -11.8256
LeftHand  -0.25398 0.0180481 5.50724
RightShoulder  4.84543 11.2628 26.7601
RightArm  -16.3243 11.7206 35.2843
RightForeArm  45.8118 73.8159 35.8904
RightHand  -1.51485 3.29068 -20.3664
LeftUpLeg  -57.7752 8.07031 -4.30964
LeftLeg  52.1978 5.44511 7.95215
LeftFoot  -7.24882 0.0907299 -1.31839
LeftToes  1.06245e-005 4.65855e-005 -8.18503e-006
273
root  60.2874 34.4167 6.26796 8.85669 -3.56985 0.714553
RightUpLeg  -53.3488 -5.97543 -2.28631
RightLeg  51.3731 -4.92753 -6.96261
RightFoot  -9.49866 -0.0856449 1.32212
RightToes  0.000482159 0.542163 -0.142577
Spine  57.143 -2.67579 6.58325
Spine1  -11.9928 -0.0143434 -0.272895
HEad  -47.0721 -6.69552 8.19299
LeftShoulder1  10.209 -18.1931 -40.7326
LeftArm  -13.0291 5.19591 -27.3147
LeftForeArm  48.1792 -48.6122 -9.17848
LeftHand  -0.25398 0.0180481 5.50724
RightShoulder  4.88086 11.2155 27.1186
RightArm  -13.7134 11.0899 35.7702
RightForeArm  42.5669 72.7226 33.3149
RightHand  -1.63038 3.70535 -20.9104
LeftUpLeg  -53.5933 9.09076 -4.34841
LeftLeg  48.8566 5.6969 7.38146
LeftFoot  -7.31474 0.0913175 -1.34653
LeftToes  1.06245e-005 4.65855e-005 -8.18503e-006
274
root  60.4061 35.2343 6.97092 7.97192 -4.43937 0.506681
RightUpLeg  -48.8419 -5.68794 -2.45355
RightLeg  47.5635 -4.81213 -5.95765
RightFoot  -9.7194 -0.0967775 2.19472
RightToes  0.000482159 0.542163 -0.142577
Spine  55.6318 -2.62523 6.32101
Spine1  -11.8072 -0.0285803 -0.309725
HEad  -45.9253 -7.32177 9.59759
LeftShoulder1  10.4161 -18.0435 -41.9425
LeftArm  -10.4102 7.01827 -26.7025
LeftForeArm  44.3689 -42.0533 -7.20387
LeftHand  -0.25398 0.0180481 5.50724
RightShoulder  4.97 11.2172 27.7397
RightArm  -11.0672 10.1796 35.947
RightForeArm  35.9378 70.2923 28.8556
RightHand  -1.7621 4.30691 -21.2133
LeftUpLeg  -49.1669 10.3925 -4.19233
LeftLeg  45.4714 5.98529 6.88848
LeftFoot  -7.44391 0.0828647 -1.12131
LeftToes  1.06245e-005 4.65855e-005 -8.18503e-006
